<svg version="1.1" xmlns="http://www.w3.org/2000/svg" width="24px" height="16px" viewBox="0 0 24 16"><g clip-path="url(#visa-brand__visa-brand__a)"><path fill="#1434CB" d="M9.105 4.137l-3.14 7.49H3.917L2.372 5.65c-.094-.369-.175-.503-.46-.659C1.445 4.74.676 4.501 0 4.355l.046-.218h3.297c.42 0 .798.28.894.764l.816 4.334 2.016-5.098h2.036zm8.025 5.045c.009-1.977-2.733-2.086-2.714-2.97.005-.268.261-.554.821-.627.278-.036 1.043-.064 1.91.335l.341-1.588A5.21 5.21 0 0015.676 4C13.76 4 12.412 5.018 12.4 6.476c-.012 1.078.962 1.68 1.696 2.039.755.366 1.009.602 1.006.93-.005.503-.602.725-1.16.733-.974.015-1.54-.263-1.99-.472l-.351 1.64c.453.208 1.288.39 2.155.399 2.036 0 3.367-1.006 3.373-2.563zm5.058 2.445h1.792l-1.564-7.49h-1.654a.882.882 0 00-.825.55l-2.908 6.94h2.035l.404-1.119h2.486l.234 1.12zm-2.162-2.654l1.02-2.812.587 2.812h-1.607zm-8.153-4.836l-1.602 7.49H8.333l1.603-7.49h1.937z"></path></g><defs><clipPath id="visa-brand__visa-brand__a"><path fill="#fff" d="M0 0h24v16H0z"></path></clipPath></defs></svg>
